<?xml version="1.0" encoding="utf-8"?>
<!-- Generator: Adobe Illustrator 23.0.3, SVG Export Plug-In . SVG Version: 6.00 Build 0)  -->
<svg version="1.1" id="Capa_1" xmlns="http://www.w3.org/2000/svg" xmlns:xlink="http://www.w3.org/1999/xlink" x="0px" y="0px"
	 viewBox="0 0 810.09 768.26" style="enable-background:new 0 0 810.09 768.26;" xml:space="preserve">
<style type="text/css">
	.st0{fill:#1F4675;}
	.st1{fill:#18386B;}
	.st2{opacity:0.56;fill:#151B2A;enable-background:new    ;}
</style>
<g>
	<g>
		<g>
			<path class="st0" d="M99.29,639.92l0.01,10.24l-59.79,0.06l-0.09-82.38l58.14-0.06l0.01,10.24l-46.37,0.05l0.03,25.3l41.31-0.04
				l0.01,10l-41.31,0.04l0.03,26.6L99.29,639.92z"/>
			<path class="st0" d="M118.29,567.75l34.72-0.04c26.48-0.03,44.5,16.66,44.53,41.14s-17.96,41.21-44.44,41.24l-34.72,0.04
				L118.29,567.75z M152.37,639.86c20.36-0.02,33.41-12.51,33.39-30.99s-13.1-30.94-33.46-30.92l-22.24,0.02l0.06,61.9
				L152.37,639.86z"/>
			<path class="st0" d="M214.85,614.49l-0.05-46.84l11.77-0.01l0.05,46.37c0.02,18.24,8.38,26.47,23.21,26.46
				c14.83-0.01,23.29-8.26,23.27-26.5l-0.05-46.37l11.42-0.01l0.05,46.84c0.03,23.89-13.03,36.5-34.8,36.52
				C228.07,650.96,214.87,638.38,214.85,614.49z"/>
			<path class="st0" d="M301.94,608.75c-0.03-24.36,18.55-42.15,43.62-42.18c12.71-0.01,23.78,4.33,31.32,12.79l-7.64,7.42
				c-6.36-6.7-14.13-9.75-23.2-9.74c-18.59,0.02-32.35,13.45-32.33,31.69s13.8,31.64,32.4,31.62c9.06-0.01,16.83-3.2,23.17-9.91
				l7.66,7.4c-7.52,8.48-18.58,12.97-31.41,12.98C320.58,650.87,301.96,633.11,301.94,608.75z"/>
			<path class="st0" d="M444.25,629.2l-43.78,0.04l-9.04,20.61l-12.12,0.01l37.22-82.42l11.65-0.01l37.51,82.34l-12.36,0.01
				L444.25,629.2z M440.12,619.79l-17.81-40.35l-17.73,40.39L440.12,619.79z"/>
			<path class="st0" d="M470.01,608.58c-0.03-24.36,18.55-42.15,43.62-42.18c12.71-0.01,23.78,4.33,31.32,12.79l-7.64,7.42
				c-6.36-6.7-14.13-9.75-23.2-9.74c-18.59,0.02-32.35,13.45-32.33,31.69s13.8,31.64,32.4,31.62c9.06-0.01,16.83-3.2,23.17-9.91
				l7.66,7.41c-7.52,8.48-18.58,12.97-31.41,12.98C488.65,650.69,470.03,632.94,470.01,608.58z"/>
			<path class="st0" d="M561.77,567.29l11.77-0.01l0.09,82.38l-11.77,0.01L561.77,567.29z"/>
			<path class="st0" d="M591.59,608.45c-0.03-24.13,18.55-42.15,43.85-42.18c25.07-0.03,43.68,17.84,43.71,42.09
				s-18.55,42.15-43.62,42.18C610.23,650.56,591.62,632.57,591.59,608.45z M667.38,608.37c-0.02-18.24-13.69-31.64-31.93-31.63
				c-18.48,0.02-32.12,13.45-32.1,31.69s13.69,31.64,32.16,31.62C653.76,640.04,667.4,626.61,667.38,608.37z M642.6,545.2
				l14.36-0.02L637.2,560.5l-10.59,0.01L642.6,545.2z"/>
			<path class="st0" d="M767.97,567.07l0.09,82.38l-9.65,0.01l-49.49-61.38l0.06,61.43l-11.77,0.01l-0.09-82.38l9.65-0.01
				l49.5,61.38l-0.06-61.44H767.97z"/>
			<path class="st0" d="M79.81,746.95L36.03,747l-9.04,20.61l-12.12,0.01l37.22-82.42l11.65-0.01l37.51,82.34l-12.36,0.01
				L79.81,746.95z M75.68,737.54l-17.81-40.35l-17.73,40.39L75.68,737.54z"/>
			<path class="st0" d="M145.07,685.1l34.72-0.04c26.48-0.03,44.5,16.67,44.53,41.15s-17.96,41.21-44.44,41.24l-34.72,0.04
				L145.07,685.1z M179.16,757.21c20.36-0.02,33.41-12.51,33.39-30.99s-13.1-30.94-33.46-30.92l-22.24,0.02l0.06,61.91
				L179.16,757.21z"/>
			<path class="st0" d="M242.28,684.99l11.77-0.01l0.09,82.38l-11.77,0.01L242.28,684.99z"/>
			<path class="st0" d="M271.31,757.93l4.34-9.18c6.13,5.53,16.61,9.52,27.2,9.5c14.24-0.02,20.36-5.55,20.35-12.73
				c-0.02-20.12-49.91-7.36-49.94-37.96c-0.01-12.71,9.86-23.55,31.52-23.57c9.65-0.01,19.66,2.57,26.49,7.27l-3.87,9.42
				c-7.18-4.58-15.31-6.69-22.6-6.69c-14,0.02-20,5.91-19.99,13.08c0.02,20.12,49.91,7.48,49.94,37.73
				c0.01,12.59-10.1,23.43-31.87,23.45C290.27,768.27,277.91,764.04,271.31,757.93z"/>
			<path class="st0" d="M367.05,695.1l-28.25,0.03l-0.01-10.24l68.14-0.07l0.01,10.24l-28.25,0.03l0.08,72.14l-11.65,0.01
				L367.05,695.1z"/>
			<path class="st0" d="M468.21,746.54l-43.78,0.04l-9.04,20.61l-12.12,0.01l37.22-82.42l11.65-0.01l37.51,82.34l-12.36,0.01
				L468.21,746.54z M464.08,737.13l-17.81-40.35l-17.73,40.39L464.08,737.13z"/>
			<path class="st0" d="M572.66,684.65l0.09,82.38l-9.65,0.01l-49.49-61.38l0.06,61.43l-11.77,0.01l-0.09-82.38l9.65-0.01
				l49.5,61.38l-0.06-61.43L572.66,684.65z"/>
			<path class="st0" d="M590.71,725.82c-0.03-24.36,18.55-42.15,43.62-42.18c12.71-0.01,23.78,4.33,31.32,12.79l-7.64,7.42
				c-6.36-6.7-14.13-9.75-23.2-9.74c-18.59,0.02-32.35,13.45-32.33,31.69c0.02,18.24,13.8,31.64,32.4,31.62
				c9.06-0.01,16.83-3.2,23.17-9.91l7.66,7.41c-7.52,8.48-18.58,12.97-31.41,12.98C609.35,767.93,590.74,750.18,590.71,725.82z"/>
			<path class="st0" d="M682.47,684.53l11.77-0.01l0.09,82.38l-11.77,0.01L682.47,684.53z"/>
			<path class="st0" d="M771.51,746.23l-43.78,0.04l-9.04,20.61l-12.12,0.01l37.22-82.42l11.65-0.01l37.51,82.34l-12.36,0.01
				L771.51,746.23z M767.39,736.82l-17.81-40.35l-17.73,40.39L767.39,736.82z"/>
		</g>
	</g>
	<g>
		<g>
			<path class="st1" d="M801.34,0l-90.71,0.2c-4.35,0.01-8.46,2.04-11.1,5.5l-36.67,47.62c0,0-38.58-31.08-93.58-23.62
				c-22.23,3.02-41.44,16.19-56.9,31.02c0,0-29.45,34.53-35.36,42.55c-0.1,0.14-18.49,23.27-44.52,56.12l-0.06-0.09L255.21,381.37
				c0,0-22.4,34.15-51.2,24.55L459.32,74.68c15.09-19.42,1.21-47.7-23.39-47.64c0,0-182.04,0.69-198.05,0.46
				S52.7,38.93,20.13,226.05C0.26,352.62,77.44,423.96,77.44,423.96L1.87,516.21c-4.48,5.73-0.39,14.11,6.89,14.09l90.71-0.2
				c4.35-0.01,8.46-2.04,11.1-5.5l36.67-47.62c0,0,38.58,31.08,93.58,23.62c22.23-3.02,41.44-16.19,56.9-31.02
				c0,0,29.45-34.53,35.36-42.55c0.1-0.14,18.49-23.27,44.52-56.12l0.06,0.09l177.23-222.08c0,0,22.4-34.15,51.2-24.55
				L350.77,455.61c-15.09,19.42-1.21,47.7,23.39,47.64c0,0,182.04-0.69,198.05-0.46c16.01,0.22,185.18-11.43,217.75-198.55
				c19.88-126.57-57.31-197.91-57.31-197.91l75.57-92.25C812.71,8.36,808.61-0.02,801.34,0z M132.28,352.32
				c0,0-42.28-45.74-20.48-131.98c32.77-100.93,124.45-102.98,124.45-102.98l59-0.14c8.07-0.02,12.62,9.26,7.67,15.63L132.28,352.32
				z M698.29,309.96c-32.77,100.93-124.45,102.98-124.45,102.98l-59,0.14c-8.07,0.02-12.62-9.26-7.67-15.63l170.64-219.47
				C677.81,177.98,720.09,223.72,698.29,309.96z"/>
		</g>
		<path class="st2" d="M147.35,477l56.83-71.11c0,0,2.43,1.12,7.26,1.6c10,1,21.5-2.49,34.54-15.07
			c0.72-0.7-61.59,77.74-77.17,97.17C154.04,482.66,147.35,477,147.35,477z"/>
		<path class="st2" d="M677.81,177.98l54.86-71.62c0,0,7.19,7,12.67,14.28l-58.2,70.91C687.14,191.54,681.68,181.96,677.81,177.98z"
			/>
	</g>
</g>
</svg>
