<svg xmlns="http://www.w3.org/2000/svg" xmlns:xlink="http://www.w3.org/1999/xlink" width="417.001" height="93.718" viewBox="0 0 417.001 93.718"><defs><style>.a{fill:url(#a);}</style><linearGradient id="a" x1="0.5" y1="1.215" x2="0.5" gradientUnits="objectBoundingBox"><stop offset="0" stop-color="#354375"/><stop offset="1" stop-color="#3c629e"/></linearGradient></defs><g transform="translate(0.001)"><g transform="translate(-2329 -649)"><path class="a" d="M2509,670.3a10.888,10.888,0,0,0-4.1-2.2,16.87,16.87,0,0,0-5-.8,22.824,22.824,0,0,0-10,2.2,25.622,25.622,0,0,0-7.7,5.8,26.707,26.707,0,0,0-6.6,17.8,24.993,24.993,0,0,0,.9,6.6,13.951,13.951,0,0,0,8.3,9.1,22.285,22.285,0,0,0,8.1,1.4,35.436,35.436,0,0,0,7.3-.7,49.466,49.466,0,0,0,5.5-1.5l-.8-9.1a28.52,28.52,0,0,1-4.8,1.3,28.858,28.858,0,0,1-5,.4,9.3,9.3,0,0,1-5.8-1.4,6.941,6.941,0,0,1-2.4-4.6,70.372,70.372,0,0,0,10.3-.8,26.559,26.559,0,0,0,8.2-2.8,14.944,14.944,0,0,0,5.4-4.9,13.727,13.727,0,0,0,2-7.4,11.173,11.173,0,0,0-1-4.8A12.454,12.454,0,0,0,2509,670.3Zm-7.3,12a4.731,4.731,0,0,1-2.2,2,17.907,17.907,0,0,1-4.6,1.6,40.47,40.47,0,0,1-7.8.8,14.331,14.331,0,0,1,3.9-7.5,9.757,9.757,0,0,1,6.9-2.8h0c2.8,0,4.2,1.2,4.2,3.7a4.124,4.124,0,0,1-.4,2.2Z"/><path class="a" d="M2550.6,691.5l10.2-42.5-12,1.9-4.2,17.5a20.482,20.482,0,0,0-2.4-.5,22.755,22.755,0,0,0-2.6-.2,24.327,24.327,0,0,0-17.9,7.5,26.5,26.5,0,0,0-7.1,18.1,29.773,29.773,0,0,0,.8,6.6,15.412,15.412,0,0,0,2.6,5.3,12.186,12.186,0,0,0,4.5,3.6,14.981,14.981,0,0,0,6.6,1.3,14.821,14.821,0,0,0,5.9-1.2,18.092,18.092,0,0,0,4.8-2.9,18.185,18.185,0,0,0,.8,1.9,9.814,9.814,0,0,1,.8,1.8l10.3-1.5a36.16,36.16,0,0,1-1.8-7.9A29.093,29.093,0,0,1,2550.6,691.5Zm-11.1-2a39.077,39.077,0,0,0-.7,3.9c-.2,1.4-.4,2.8-.5,4.1a11.906,11.906,0,0,1-3.1,2.3,7.246,7.246,0,0,1-3.3.7,4.889,4.889,0,0,1-4.6-2.1,11.745,11.745,0,0,1-1.3-5.8,17.152,17.152,0,0,1,3.5-10.5,13.478,13.478,0,0,1,4-3.5,9.828,9.828,0,0,1,5-1.3h2.3c.2,0,.5.1.7.1.2.1.5.1.8.2Z"/><path class="a" d="M2598.7,668.4h-11.6l-5,21.1a39.077,39.077,0,0,0-.7,3.9c-.2,1.4-.4,2.8-.5,4.1a12.438,12.438,0,0,1-3.2,2.3,9.283,9.283,0,0,1-3.3.7,4.064,4.064,0,0,1-3-1,3.947,3.947,0,0,1-1.2-2.5,18.17,18.17,0,0,1,0-3.3c.2-1.2.4-2.4.7-3.5l5.2-21.9h-11.5l-5.3,22a25.571,25.571,0,0,0-.8,7.3,13.908,13.908,0,0,0,1.5,6.3,11.116,11.116,0,0,0,4.2,4.4,14.654,14.654,0,0,0,7.4,1.7,15.3,15.3,0,0,0,6-1.2,20.405,20.405,0,0,0,4.9-2.9c.5,1.3,1,2.6,1.6,3.8l10.3-1.5a36.16,36.16,0,0,1-1.8-7.9,26.588,26.588,0,0,1,.6-8.9Z"/><path class="a" d="M2625.8,677a14.4,14.4,0,0,1,4.1.5,30.05,30.05,0,0,1,3.2,1.1l3.9-9a22.706,22.706,0,0,0-5-1.7,25.636,25.636,0,0,0-6.2-.7,24.952,24.952,0,0,0-10.1,2,23.167,23.167,0,0,0-7.7,5.5,25.83,25.83,0,0,0-4.9,8.1,30.291,30.291,0,0,0-1.7,9.9,21.767,21.767,0,0,0,1,6.7,13.583,13.583,0,0,0,3.1,5.5,16.414,16.414,0,0,0,5.5,3.8,20.664,20.664,0,0,0,8.1,1.4,27.044,27.044,0,0,0,6.3-.7,44.2,44.2,0,0,0,4.8-1.5l-.8-9.2a22.846,22.846,0,0,1-3.7,1.2,21.017,21.017,0,0,1-4.3.5c-3.1,0-5.1-.8-6.3-2.4a11.009,11.009,0,0,1-1.7-6.4,16.144,16.144,0,0,1,3.3-10.6A11.382,11.382,0,0,1,2625.8,677Z"/><path class="a" d="M2676,670.4a26.4,26.4,0,0,0-4.7-1.7,38.9,38.9,0,0,0-4.7-.9,30.228,30.228,0,0,0-4-.3c-1.2-.1-2-.1-2.4-.1a24.329,24.329,0,0,0-17.8,7.5,25.037,25.037,0,0,0-5.3,8.3,27.727,27.727,0,0,0-1.1,16.6,15.183,15.183,0,0,0,2.5,5.3,12.186,12.186,0,0,0,4.5,3.6,15.693,15.693,0,0,0,12.5.2,23.6,23.6,0,0,0,4.8-2.9,18.185,18.185,0,0,0,.8,1.9l.9,1.8,10.3-1.5a36.16,36.16,0,0,1-1.8-7.9,26.588,26.588,0,0,1,.6-8.9Zm-16.1,19.1a39.077,39.077,0,0,0-.7,3.9c-.2,1.4-.4,2.8-.5,4.1a11.906,11.906,0,0,1-3.1,2.3,7.111,7.111,0,0,1-3.2.7,4.771,4.771,0,0,1-4.6-2.2,12.04,12.04,0,0,1-1.2-5.9,16.47,16.47,0,0,1,1-5.8,15.694,15.694,0,0,1,2.7-4.9,12.961,12.961,0,0,1,4-3.4,9.472,9.472,0,0,1,4.9-1.3,13.405,13.405,0,0,1,2,.1c.6.1,1.1.1,1.8.2Z"/><path class="a" d="M2677.8,691.2h22.5l2.5-10.5h-22.5Z"/><path class="a" d="M2725.8,697.7v-1.3a1.267,1.267,0,0,1,.1-.6v-.3c.1-.5.1-.9.2-1.4l.1-.4a6.322,6.322,0,0,0,.2-.7l3.6-15.1h13.5l2.5-10h-13.6l.8-3.4,2.3-9.3h0l-12.7,2-4.9,20.7-2.2,9.3v.1l-.9,3.8a42.8,42.8,0,0,0-1.1,8,13.955,13.955,0,0,0,1.1,6.7,9.818,9.818,0,0,0,4.4,4.6,18.974,18.974,0,0,0,8.8,1.7h1a20.678,20.678,0,0,0,3.5-.3h.4l.9-.2.6-.1h0c.1,0,.3-.1.4-.1l1.1-.3c1.4-.4,2.9-.8,4.3-1.3l-.9-9.4h0a25.393,25.393,0,0,1-3.7,1,24.5,24.5,0,0,1-3.8.4,10.872,10.872,0,0,1-1.8-.1,6.356,6.356,0,0,1-1.8-.6,3.512,3.512,0,0,1-1.8-1.8,5.729,5.729,0,0,1-.4-1.4v-.2Zm0-.4Z"/><path class="a" d="M2375.4,704.5c.6,5.2,37.1,18.4,44.5,17.6,7.2-.7,40.7-21.3,40.1-26.6a3.289,3.289,0,0,0-.7-1.6l-3.2-15.3L2416,695.9l-.2.1-40.3-9v15.1c0,.5-.1.9-.1,1.2A4.807,4.807,0,0,0,2375.4,704.5Z"/><path class="a" d="M2504.9,715.2a6.457,6.457,0,0,0-.9.8,45.4,45.4,0,0,1-6.7,4.8,87.589,87.589,0,0,1-11.4,5.9,144.944,144.944,0,0,1-15.6,5.6c-6.3,1.8-12.7,3.3-19.1,4.5-7.2,1.3-14.4,2.3-21.7,2.9a203.115,203.115,0,0,1-23.4.5,174.658,174.658,0,0,1-23.9-2.6,113.951,113.951,0,0,1-23-6.5,66.28,66.28,0,0,1-10.3-5.2,47.327,47.327,0,0,1-4.6-3.2,35.073,35.073,0,0,1-4-3.7,25.141,25.141,0,0,1-3.2-4.1,23.891,23.891,0,0,1-1.2-2.2,11.726,11.726,0,0,0-.5-1.1,5.632,5.632,0,0,1-.4-1.2,9.768,9.768,0,0,1-.6-2.3c-.1-.4-.1-.8-.2-1.2,0-.2-.1-.4-.1-.6v-1.8a4.1,4.1,0,0,1,.1-1.1,14.364,14.364,0,0,1,.4-2.2,21.958,21.958,0,0,1,4.2-8,41,41,0,0,1,6.3-6.2,50.994,50.994,0,0,1,6.9-4.5c1.2-.6,2.3-1.2,3.5-1.7a12.214,12.214,0,0,1,1.7-.7l.8-.3.4-.2c.1-.1.3-.1.4-.2.1,0,.2-.1.4-.2l15.6,3.5v.1l7.4,1.7h0l33.3,7,31.4-13.7h0l5.2-2.4,2.3-1h0l22.4-10.3-65.3-14.7-32.7,15h0l-10.3,4.4c-3.3,1.4-7.2,3.1-11.8,5.1a60.257,60.257,0,0,0-15.1,8.8,44.644,44.644,0,0,0-7.1,7.3,32.124,32.124,0,0,0-2.9,4.6,20.633,20.633,0,0,0-2,5.4c-.2,1-.4,2-.5,3,0,.5-.1,1-.1,1.5v1.4l.1.8a2.2,2.2,0,0,0,.1.8l.3,1.5a24.526,24.526,0,0,0,.8,2.9c.2.5.4.9.6,1.4a9.134,9.134,0,0,0,.7,1.4l1.5,2.7a24.994,24.994,0,0,0,3.9,4.7,45.69,45.69,0,0,0,9.7,7.3,70.369,70.369,0,0,0,11.1,5.2,121.464,121.464,0,0,0,23.9,6.1,181.087,181.087,0,0,0,24.4,2,185.6,185.6,0,0,0,23.6-1.1c7.3-.8,14.6-1.9,21.8-3.4a178.664,178.664,0,0,0,19.1-5,147.517,147.517,0,0,0,15.6-6,82.745,82.745,0,0,0,11.3-6.2,63.575,63.575,0,0,0,6.6-5,6.058,6.058,0,0,1,.8-.8l.7-.7.5-.6-.5.5A2.85,2.85,0,0,1,2504.9,715.2Z"/></g><path class="a" d="M190.2,73.5a6.665,6.665,0,0,1,3.8.9,3.168,3.168,0,0,1,1.3,2.8,2.861,2.861,0,0,1-.4,1.7,2.544,2.544,0,0,1-1.1,1.2,6.689,6.689,0,0,1-1.7.7,14.979,14.979,0,0,1-2.2.2h-1.3v4.4h-1.7V73.7a7.772,7.772,0,0,1,1.6-.2Zm.1,1.4a7.115,7.115,0,0,0-1.6.1v4.6h1.2a6.622,6.622,0,0,0,1.5-.1,4.234,4.234,0,0,0,1.2-.4,1.575,1.575,0,0,0,.7-.7,3.5,3.5,0,0,0,.3-1.2,1.8,1.8,0,0,0-.3-1.1,2.336,2.336,0,0,0-.7-.7,4.179,4.179,0,0,0-1-.4A5.282,5.282,0,0,0,190.3,74.9Z"/><path class="a" d="M205.8,84v1.4h-7.1V73.6h1.7V84Z"/><path class="a" d="M217.1,85.4a8.8,8.8,0,0,1-.5-1.5c-.2-.5-.3-1-.5-1.5h-5.4l-1.1,3h-1.7c.5-1.2.9-2.4,1.3-3.5s.8-2.1,1.2-3c.4-1,.8-1.9,1.1-2.7s.8-1.7,1.2-2.6h1.5c.4.9.8,1.7,1.2,2.6s.8,1.8,1.1,2.7l1.2,3c.4,1.1.8,2.2,1.3,3.5ZM215.5,81c-.4-1-.7-1.9-1.1-2.9-.4-.9-.7-1.8-1.1-2.7a21.76,21.76,0,0,0-1.1,2.7c-.4.9-.7,1.9-1.1,2.9Z"/><path class="a" d="M228.5,73.6V75h-3.7V85.4h-1.7V75h-3.7V73.6Z"/><path class="a" d="M238.3,85.4a8.8,8.8,0,0,1-.5-1.5c-.2-.5-.3-1-.5-1.5h-5.4l-1.1,3h-1.7c.5-1.2.9-2.4,1.3-3.5s.8-2.1,1.2-3c.4-1,.8-1.9,1.1-2.7s.8-1.7,1.2-2.6h1.5c.4.9.8,1.7,1.2,2.6s.8,1.8,1.1,2.7l1.2,3c.4,1.1.8,2.2,1.3,3.5ZM236.7,81c-.4-1-.7-1.9-1.1-2.9-.4-.9-.7-1.8-1.1-2.7a21.76,21.76,0,0,0-1.1,2.7c-.4.9-.7,1.9-1.1,2.9Z"/><path class="a" d="M242.9,85.4V73.6H250V75h-5.5v3.6h4.9V80h-4.9v5.4Z"/><path class="a" d="M252.6,79.5a7.635,7.635,0,0,1,.5-2.7,5.162,5.162,0,0,1,1.2-1.9,5.675,5.675,0,0,1,1.8-1.2,6.25,6.25,0,0,1,4.4,0,5.674,5.674,0,0,1,1.8,1.2,6.151,6.151,0,0,1,1.2,1.9,7.54,7.54,0,0,1,0,5.4,5.162,5.162,0,0,1-1.2,1.9,5.675,5.675,0,0,1-1.8,1.2,6.25,6.25,0,0,1-4.4,0,4.394,4.394,0,0,1-1.8-1.2,6.15,6.15,0,0,1-1.2-1.9A5.923,5.923,0,0,1,252.6,79.5Zm1.7,0a6.448,6.448,0,0,0,.3,2,3.606,3.606,0,0,0,.8,1.5,3.449,3.449,0,0,0,1.2.9,4.417,4.417,0,0,0,3.2,0A2.73,2.73,0,0,0,261,83a5.3,5.3,0,0,0,.8-1.5,6.817,6.817,0,0,0,0-4A3.606,3.606,0,0,0,261,76a3.449,3.449,0,0,0-1.2-.9,4.417,4.417,0,0,0-3.2,0,2.73,2.73,0,0,0-1.2.9,5.3,5.3,0,0,0-.8,1.5A6.448,6.448,0,0,0,254.3,79.5Z"/><path class="a" d="M273.3,80.4a9.685,9.685,0,0,1,.7.9l.9,1.2c.3.4.6.9.9,1.4s.5,1,.7,1.4h-1.8c-.2-.4-.5-.9-.7-1.3-.3-.4-.5-.9-.8-1.3a10.474,10.474,0,0,0-.8-1.1,9.681,9.681,0,0,0-.7-.9h-2.5v4.6h-1.7V73.7a7.772,7.772,0,0,1,1.6-.2c.6,0,1.1-.1,1.6-.1a6.665,6.665,0,0,1,3.8.9,3.653,3.653,0,0,1,.7,4.8A2.886,2.886,0,0,1,273.3,80.4Zm-2.5-5.5a7.115,7.115,0,0,0-1.6.1v4.4h1.2a6.622,6.622,0,0,0,1.5-.1c.5-.1.8-.2,1.2-.3a1.576,1.576,0,0,0,.7-.7,2.132,2.132,0,0,0,.3-1.2,2.016,2.016,0,0,0-.3-1.1,2.336,2.336,0,0,0-.7-.7,3,3,0,0,0-1-.4Z"/><path class="a" d="M284.8,83.8a9.249,9.249,0,0,0-.5-1c-.2-.4-.4-.9-.6-1.4a10.092,10.092,0,0,0-.7-1.5c-.2-.5-.5-1-.7-1.5a6.658,6.658,0,0,0-.6-1.2,2.769,2.769,0,0,0-.5-.8c-.1,1.3-.2,2.8-.3,4.4s-.1,3.1-.2,4.7h-1.6c0-1,.1-2.1.2-3.1s.1-2.1.2-3.1.2-2,.2-2.9a22.288,22.288,0,0,1,.3-2.7h1.4c.3.5.6,1.1,1,1.8s.7,1.4,1.1,2.1a21.4,21.4,0,0,1,1,2.2c.3.7.6,1.4.9,2,.3-.6.6-1.3.9-2s.7-1.5,1-2.2c.4-.7.7-1.5,1.1-2.1.4-.7.7-1.3,1-1.8h1.4c.4,3.8.7,7.7.9,11.8h-1.6c-.1-1.6-.1-3.2-.2-4.7-.1-1.6-.2-3-.3-4.4a9.223,9.223,0,0,1-.5.8l-.6,1.2c-.2.5-.4.9-.7,1.5-.2.5-.5,1-.7,1.5s-.4.9-.6,1.4a4.609,4.609,0,0,1-.5,1h-1.2Z"/><path class="a" d="M303.5,85.4a8.8,8.8,0,0,1-.5-1.5c-.2-.5-.3-1-.5-1.5H297l-1.1,3h-1.7c.5-1.2.9-2.4,1.3-3.5s.8-2.1,1.2-3c.4-1,.8-1.9,1.1-2.7s.8-1.7,1.2-2.6h1.5c.4.9.8,1.7,1.2,2.6s.8,1.8,1.1,2.7l1.2,3c.4,1.1.8,2.2,1.3,3.5ZM301.9,81c-.4-1-.7-1.9-1.1-2.9-.4-.9-.7-1.8-1.1-2.7a21.762,21.762,0,0,0-1.1,2.7c-.4.9-.7,1.9-1.1,2.9Z"/><path class="a" d="M313.3,85.4V73.6h7.2V75h-5.6v3.5h4.9v1.4h-4.9V84h6v1.4Z"/><path class="a" d="M333.9,79.5a7.635,7.635,0,0,1-.5,2.7,4.833,4.833,0,0,1-3.4,3,10.952,10.952,0,0,1-2.7.4,9.151,9.151,0,0,1-1.6-.1,7.772,7.772,0,0,1-1.6-.2V73.7a7.772,7.772,0,0,1,1.6-.2c.6,0,1.1-.1,1.6-.1a7.664,7.664,0,0,1,2.7.4,6.985,6.985,0,0,1,2.1,1.1,4.312,4.312,0,0,1,1.3,1.9A5.923,5.923,0,0,1,333.9,79.5ZM327.5,84a4.639,4.639,0,0,0,3.5-1.2,4.547,4.547,0,0,0,1.2-3.4A4.7,4.7,0,0,0,331,76a4.639,4.639,0,0,0-3.5-1.2h-1.6v9h.5A1.816,1.816,0,0,0,327.5,84Z"/><path class="a" d="M342,85.6a4.211,4.211,0,0,1-2-.4,3.746,3.746,0,0,1-2.2-2.5,5.662,5.662,0,0,1-.3-1.8V73.5h1.7v7.2a3.844,3.844,0,0,0,.8,2.6,2.792,2.792,0,0,0,2,.8,3.6,3.6,0,0,0,1.1-.2,2.361,2.361,0,0,0,.9-.6,8.794,8.794,0,0,0,.6-1,6.052,6.052,0,0,0,.2-1.5V73.6h1.7V81a4.845,4.845,0,0,1-.3,1.8,3.607,3.607,0,0,1-.8,1.5,5.019,5.019,0,0,1-1.4,1A6.015,6.015,0,0,1,342,85.6Z"/><path class="a" d="M355.6,85.6a5.867,5.867,0,0,1-2.3-.4,5.675,5.675,0,0,1-1.8-1.2,4.532,4.532,0,0,1-1.1-1.9,9.472,9.472,0,0,1-.4-2.6,6.689,6.689,0,0,1,.5-2.6,5.162,5.162,0,0,1,1.2-1.9,5.675,5.675,0,0,1,1.8-1.2,5.382,5.382,0,0,1,2.2-.4,5.283,5.283,0,0,1,1.3.1c.4.1.7.1,1,.2a4.876,4.876,0,0,1,.7.3c.2.1.3.2.4.2l-.5,1.4c-.1-.1-.2-.1-.4-.2a1.445,1.445,0,0,0-.7-.2c-.2-.1-.5-.1-.8-.2a2.769,2.769,0,0,0-.9-.1,4.671,4.671,0,0,0-1.7.3,3.805,3.805,0,0,0-1.3.9,3.606,3.606,0,0,0-.8,1.5,6.014,6.014,0,0,0-.3,2,11.075,11.075,0,0,0,.2,1.9,5.226,5.226,0,0,0,.7,1.5,4,4,0,0,0,1.2,1,4.671,4.671,0,0,0,1.7.3,9.2,9.2,0,0,0,1.9-.2c.5-.2.9-.3,1.1-.4l.4,1.4c-.1.1-.2.1-.4.2a1.884,1.884,0,0,1-.8.2,5.16,5.16,0,0,0-1.1.2A2.246,2.246,0,0,0,355.6,85.6Z"/><path class="a" d="M370.6,85.4a8.8,8.8,0,0,1-.5-1.5c-.2-.5-.3-1-.5-1.5h-5.4l-1.1,3h-1.7c.5-1.2.9-2.4,1.3-3.5s.8-2.1,1.2-3c.4-1,.8-1.9,1.1-2.7s.8-1.7,1.2-2.6h1.5c.4.9.8,1.7,1.2,2.6s.8,1.8,1.1,2.7l1.2,3c.4,1.1.8,2.2,1.3,3.5ZM369,81c-.4-1-.7-1.9-1.1-2.9-.4-.9-.7-1.8-1.1-2.7a21.762,21.762,0,0,0-1.1,2.7c-.4.9-.7,1.9-1.1,2.9Z"/><path class="a" d="M382,73.6V75h-3.7V85.4h-1.7V75H373V73.6Z"/><path class="a" d="M385,73.6h1.7V85.4H385Z"/><path class="a" d="M400.4,73.6c-.4,1.2-.8,2.4-1.2,3.5s-.8,2.1-1.2,3c-.4,1-.7,1.9-1.1,2.7s-.7,1.7-1.1,2.6h-1.6c-.4-.9-.8-1.7-1.1-2.6s-.7-1.8-1.1-2.7-.8-2-1.2-3c-.4-1.1-.8-2.2-1.2-3.5h1.8c.6,1.8,1.2,3.5,1.8,5.2s1.2,3.2,1.8,4.7c.6-1.4,1.2-3,1.8-4.7s1.2-3.4,1.8-5.2Z"/><path class="a" d="M410,85.4a8.8,8.8,0,0,1-.5-1.5c-.2-.5-.3-1-.5-1.5h-5.4l-1.1,3h-1.7c.5-1.2.9-2.4,1.3-3.5s.8-2.1,1.2-3c.4-1,.8-1.9,1.1-2.7s.8-1.7,1.2-2.6h1.5c.4.9.8,1.7,1.2,2.6s.8,1.8,1.1,2.7l1.2,3c.4,1.1.8,2.2,1.3,3.5ZM408.5,81c-.4-1-.7-1.9-1.1-2.9-.4-.9-.7-1.8-1.1-2.7a21.762,21.762,0,0,0-1.1,2.7c-.4.9-.7,1.9-1.1,2.9Z"/></g></svg>